<svg width="10" height="12" viewBox="0 0 10 12" fill="none" xmlns="http://www.w3.org/2000/svg">
<path d="M9.46131 8.30769C9.46131 8.51171 9.38027 8.70736 9.23601 8.85162C9.09175 8.99588 8.89609 9.07692 8.69208 9.07692H3.69208C3.48807 9.07692 3.29241 8.99588 3.14815 8.85162C3.0039 8.70736 2.92285 8.51171 2.92285 8.30769V1.76923C2.92285 1.56522 3.0039 1.36956 3.14815 1.2253C3.29241 1.08104 3.48807 1 3.69208 1H7.15362L9.46131 3.30769V8.30769Z" stroke="#B2B2B2" stroke-linecap="round" stroke-linejoin="round"/>
<path d="M7.15385 11.0004H1.76923C1.56522 11.0004 1.36956 10.9194 1.2253 10.7751C1.08104 10.6309 1 10.4352 1 10.2312V3.30811" stroke="#B2B2B2" stroke-linecap="round" stroke-linejoin="round"/>
</svg>
