<svg width="12" height="12" viewBox="0 0 12 12" fill="none" xmlns="http://www.w3.org/2000/svg">
<path d="M11.0001 8.69238V10.2308C11.0001 10.4349 10.919 10.6305 10.7748 10.7748C10.6305 10.919 10.4349 11.0001 10.2308 11.0001H8.69238" stroke="#B2B2B2" stroke-linecap="round" stroke-linejoin="round"/>
<path d="M8.69238 1H10.2308C10.4349 1 10.6305 1.08104 10.7748 1.2253C10.919 1.36956 11.0001 1.56522 11.0001 1.76923V3.30769" stroke="#B2B2B2" stroke-linecap="round" stroke-linejoin="round"/>
<path d="M1 3.30769V1.76923C1 1.56522 1.08104 1.36956 1.2253 1.2253C1.36956 1.08104 1.56522 1 1.76923 1H3.30769" stroke="#B2B2B2" stroke-linecap="round" stroke-linejoin="round"/>
<path d="M3.30769 11.0001H1.76923C1.56522 11.0001 1.36956 10.919 1.2253 10.7748C1.08104 10.6305 1 10.4349 1 10.2308V8.69238" stroke="#B2B2B2" stroke-linecap="round" stroke-linejoin="round"/>
<path d="M9.46116 6.00008C9.46116 6.00008 7.9227 8.30777 5.99962 8.30777C4.07655 8.30777 2.53809 6.00008 2.53809 6.00008C2.53809 6.00008 4.07655 3.69238 5.99962 3.69238C7.9227 3.69238 9.46116 6.00008 9.46116 6.00008Z" stroke="#B2B2B2" stroke-linecap="round" stroke-linejoin="round"/>
<path d="M5.99985 6.38447C6.21227 6.38447 6.38447 6.21227 6.38447 5.99985C6.38447 5.78743 6.21227 5.61523 5.99985 5.61523C5.78743 5.61523 5.61523 5.78743 5.61523 5.99985C5.61523 6.21227 5.78743 6.38447 5.99985 6.38447Z" stroke="#B2B2B2" stroke-linecap="round" stroke-linejoin="round"/>
</svg>
