<svg width="15" height="15" viewBox="0 0 15 15" fill="none" xmlns="http://www.w3.org/2000/svg">
<path d="M0 7.5C0 3.35786 3.35786 0 7.5 0C11.6421 0 15 3.35786 15 7.5C15 11.6421 11.6421 15 7.5 15C3.35786 15 0 11.6421 0 7.5Z" fill="#F5B300"/>
<path d="M4.86493 3.44845C5.14036 3.52357 5.41579 3.57365 5.69122 3.64877C5.96665 3.72388 6.24208 3.77396 6.51751 3.84908C6.59263 3.87412 6.61766 3.84908 6.6427 3.77396C6.74286 3.3483 6.84302 2.94767 6.94317 2.52201C6.96821 2.44689 6.99325 2.42185 7.06837 2.44689C7.31876 2.52201 7.54411 2.57209 7.7945 2.62216C7.86962 2.6472 7.86962 2.67224 7.84458 2.72232C7.74442 3.12295 7.64427 3.54861 7.54411 3.94924C7.54411 3.97428 7.54411 3.99932 7.51907 4.04939C7.71939 4.09947 7.94474 4.14955 8.14505 4.19963C8.17009 4.19963 8.19513 4.14955 8.22017 4.12451C8.29529 3.799 8.3704 3.49853 8.47056 3.17302C8.4956 3.07287 8.52064 2.97271 8.54568 2.87255C8.54568 2.82248 8.57072 2.79744 8.62079 2.82248C8.87119 2.89759 9.12158 2.94767 9.39701 3.02279C9.42205 3.02279 9.42205 3.04783 9.44708 3.04783C9.37197 3.37334 9.29685 3.67381 9.22173 3.97428C9.19669 4.09947 9.17166 4.22467 9.12158 4.34986C9.09654 4.42498 9.12158 4.45002 9.19669 4.47506C9.47212 4.60025 9.74755 4.72545 10.023 4.85065C10.2734 5.00088 10.4987 5.20119 10.674 5.45158C10.8994 5.82717 10.9244 6.2278 10.8242 6.62842C10.7491 6.90385 10.649 7.15424 10.4486 7.35456C10.2984 7.50479 10.0981 7.60495 9.89779 7.68007C9.87275 7.68007 9.84771 7.70511 9.79763 7.70511C9.89779 7.78022 9.99795 7.8303 10.0981 7.90542C10.3986 8.13077 10.5989 8.4062 10.699 8.75675C10.7491 9.03218 10.7241 9.33265 10.649 9.60808C10.5488 9.95863 10.4236 10.2591 10.1983 10.5345C9.92283 10.86 9.57228 11.0353 9.17165 11.0854C8.64583 11.1605 8.14505 11.1104 7.64427 11.0353C7.56915 11.0103 7.51907 11.0353 7.49403 11.1104C7.39388 11.5111 7.29372 11.9367 7.19356 12.3373C7.16852 12.4375 7.16852 12.4625 7.04333 12.4125C6.81798 12.3624 6.56759 12.2873 6.34223 12.2372C6.26712 12.2121 6.26712 12.1871 6.29216 12.137C6.39231 11.7114 6.49247 11.2857 6.61766 10.8851C6.61766 10.835 6.6427 10.81 6.59263 10.7849C6.39231 10.7348 6.192 10.6848 5.96665 10.6347C5.91657 10.86 5.84145 11.0854 5.79137 11.3107C5.74129 11.5361 5.66618 11.7614 5.6161 11.9868C5.59106 12.0369 5.59106 12.0619 5.51594 12.0369C5.26555 11.9618 5.01516 11.9117 4.76477 11.8616C4.68965 11.8366 4.68965 11.8115 4.71469 11.7614C4.81485 11.3358 4.915 10.9101 5.0402 10.5095C5.0402 10.4844 5.06524 10.4594 5.06524 10.4093C4.48934 10.2591 3.91344 10.1089 3.3125 9.95863C3.36258 9.85847 3.38762 9.78335 3.4377 9.6832C3.53785 9.45784 3.63801 9.23249 3.71313 9.03218C3.73817 8.95706 3.7632 8.95706 3.83832 8.95706C4.0136 9.00714 4.21391 9.05722 4.38918 9.08226C4.5895 9.13234 4.73973 9.03218 4.76477 8.85691C5.09028 7.57991 5.41579 6.30291 5.71626 5.00088C5.76633 4.80057 5.64114 4.57522 5.41579 4.5001C5.19043 4.42498 4.96508 4.3749 4.76477 4.32482C4.71469 4.32482 4.68965 4.29978 4.71469 4.24971C4.78981 3.97428 4.86493 3.67381 4.94004 3.39838C4.83989 3.47349 4.83989 3.47349 4.86493 3.44845ZM6.14192 9.63312C6.16696 9.63312 6.192 9.65816 6.192 9.65816C6.59263 9.75831 7.01829 9.88351 7.44396 9.90855C7.74442 9.93359 8.01986 9.93359 8.29529 9.83343C8.77103 9.6832 8.97134 9.05722 8.69591 8.65659C8.57072 8.45628 8.3704 8.33108 8.17009 8.20589C7.71939 7.9555 7.19356 7.85534 6.69278 7.75518C6.61766 7.73014 6.61766 7.75518 6.59263 7.8303C6.54255 8.08069 6.46743 8.30604 6.41735 8.55644C6.31719 8.90698 6.24208 9.25753 6.14192 9.63312ZM8.24521 7.07913C8.29529 7.07913 8.42048 7.05409 8.52064 7.02905C8.99638 6.92889 9.24677 6.37803 8.99638 5.95237C8.87119 5.72702 8.64583 5.57678 8.42048 5.47662C8.06993 5.32639 7.71939 5.25127 7.3438 5.15111C7.26868 5.12608 7.24364 5.15111 7.2186 5.22623C7.09341 5.75205 6.96821 6.25284 6.81798 6.77866C6.79294 6.82874 6.81798 6.85378 6.86806 6.87882C6.96821 6.90385 7.04333 6.92889 7.14349 6.95393C7.51907 7.00401 7.84458 7.07913 8.24521 7.07913Z" fill="white"/>
</svg>
