<svg width="15" height="15" viewBox="0 0 15 15" fill="none" xmlns="http://www.w3.org/2000/svg">
<path d="M5 1H2C1.44772 1 1 1.44772 1 2V5C1 5.55228 1.44772 6 2 6H5C5.55228 6 6 5.55228 6 5V2C6 1.44772 5.55228 1 5 1Z" stroke="#6D00F3" stroke-width="2" stroke-linecap="round" stroke-linejoin="round"/>
<path d="M13 1H10C9.44772 1 9 1.44772 9 2V5C9 5.55228 9.44772 6 10 6H13C13.5523 6 14 5.55228 14 5V2C14 1.44772 13.5523 1 13 1Z" stroke="#6D00F3" stroke-width="2" stroke-linecap="round" stroke-linejoin="round"/>
<path d="M5 9H2C1.44772 9 1 9.44772 1 10V13C1 13.5523 1.44772 14 2 14H5C5.55228 14 6 13.5523 6 13V10C6 9.44772 5.55228 9 5 9Z" stroke="#6D00F3" stroke-width="2" stroke-linecap="round" stroke-linejoin="round"/>
<path d="M13 9H10C9.44772 9 9 9.44772 9 10V13C9 13.5523 9.44772 14 10 14H13C13.5523 14 14 13.5523 14 13V10C14 9.44772 13.5523 9 13 9Z" stroke="#6D00F3" stroke-width="2" stroke-linecap="round" stroke-linejoin="round"/>
</svg>
