<svg width="29" height="29" viewBox="0 0 29 29" fill="none" xmlns="http://www.w3.org/2000/svg">
<path d="M17.3846 2H3.92308C3.41305 2 2.9239 2.20261 2.56326 2.56326C2.20261 2.9239 2 3.41305 2 3.92308V25.0769C2 25.587 2.20261 26.0761 2.56326 26.4367C2.9239 26.7974 3.41305 27 3.92308 27H25.0769C25.587 27 26.0761 26.7974 26.4367 26.4367C26.7974 26.0761 27 25.587 27 25.0769V11.6154L17.3846 2Z" stroke="#6D00F3" stroke-width="3" stroke-linecap="round" stroke-linejoin="round"/>
<path d="M17.3838 10.6538V2L26.9992 11.6154H18.3453C18.0903 11.6154 17.8457 11.5141 17.6654 11.3338C17.4851 11.1534 17.3838 10.9089 17.3838 10.6538Z" stroke="#6D00F3" stroke-width="3" stroke-linecap="round" stroke-linejoin="round"/>
<path d="M9.69238 9.69223V6.80762" stroke="#6D00F3" stroke-width="3" stroke-linecap="round" stroke-linejoin="round"/>
<path d="M6.80762 17.3847C6.80762 18.827 8.09608 19.3078 9.69223 19.3078C11.2884 19.3078 12.5768 19.3078 12.5768 17.3847C12.5768 14.5001 6.80762 14.5001 6.80762 11.6155C6.80762 9.69238 8.09608 9.69238 9.69223 9.69238C11.2884 9.69238 12.5768 10.4232 12.5768 11.6155" stroke="#6D00F3" stroke-width="3" stroke-linecap="round" stroke-linejoin="round"/>
<path d="M9.69238 19.3076V22.1922" stroke="#6D00F3" stroke-width="3" stroke-linecap="round" stroke-linejoin="round"/>
<path d="M17.3838 19.3076H23.153" stroke="#6D00F3" stroke-width="3" stroke-linecap="round" stroke-linejoin="round"/>
</svg>
