<svg width="17" height="17" viewBox="0 0 17 17" fill="none" xmlns="http://www.w3.org/2000/svg">
<path d="M10.2308 1H2.15385C1.84783 1 1.55434 1.12157 1.33795 1.33795C1.12157 1.55434 1 1.84783 1 2.15385V14.8462C1 15.1522 1.12157 15.4457 1.33795 15.662C1.55434 15.8784 1.84783 16 2.15385 16H14.8462C15.1522 16 15.4457 15.8784 15.662 15.662C15.8784 15.4457 16 15.1522 16 14.8462V6.76923L10.2308 1Z" stroke="#6D00F3" stroke-width="2" stroke-linecap="round" stroke-linejoin="round"/>
<path d="M10.2305 6.19231V1L15.9997 6.76923H10.8074C10.6544 6.76923 10.5076 6.70845 10.3994 6.60025C10.2913 6.49206 10.2305 6.34532 10.2305 6.19231Z" stroke="#6D00F3" stroke-width="2" stroke-linecap="round" stroke-linejoin="round"/>
<path d="M5.61523 5.61553V3.88477" stroke="#6D00F3" stroke-width="2" stroke-linecap="round" stroke-linejoin="round"/>
<path d="M3.88477 10.2306C3.88477 11.096 4.65784 11.3845 5.61554 11.3845C6.57323 11.3845 7.3463 11.3845 7.3463 10.2306C7.3463 8.49985 3.88477 8.49985 3.88477 6.76908C3.88477 5.61523 4.65784 5.61523 5.61554 5.61523C6.57323 5.61523 7.3463 6.0537 7.3463 6.76908" stroke="#6D00F3" stroke-width="2" stroke-linecap="round" stroke-linejoin="round"/>
<path d="M5.61523 11.3848V13.1155" stroke="#6D00F3" stroke-width="2" stroke-linecap="round" stroke-linejoin="round"/>
<path d="M10.2305 11.3848H13.692" stroke="#6D00F3" stroke-width="2" stroke-linecap="round" stroke-linejoin="round"/>
</svg>
