<svg width="17" height="17" viewBox="0 0 17 17" fill="none" xmlns="http://www.w3.org/2000/svg">
<path d="M10.8085 9.08145C13.676 9.08145 16.0007 8.04897 16.0007 6.77534C16.0007 5.50172 13.676 4.46924 10.8085 4.46924C7.94086 4.46924 5.61621 5.50172 5.61621 6.77534C5.61621 8.04897 7.94086 9.08145 10.8085 9.08145Z" stroke="#6D00F3" stroke-width="2" stroke-linecap="round" stroke-linejoin="round"/>
<path d="M5.61621 6.77539V13.6937C5.61621 14.9621 7.92387 15.9998 10.8085 15.9998C13.693 15.9998 16.0007 14.9621 16.0007 13.6937V6.77539" stroke="#6D00F3" stroke-width="2" stroke-linecap="round" stroke-linejoin="round"/>
<path d="M16.0007 10.2344C16.0007 11.5027 13.693 12.5405 10.8085 12.5405C7.92387 12.5405 5.61621 11.5027 5.61621 10.2344" stroke="#6D00F3" stroke-width="2" stroke-linecap="round" stroke-linejoin="round"/>
<path d="M10.6922 2.16317C9.34392 1.33168 7.77452 0.92954 6.19224 1.01012C3.3192 1.01012 1 2.04787 1 3.31623C1 3.99653 1.66922 4.60764 2.73075 5.0458" stroke="#6D00F3" stroke-width="2" stroke-linecap="round" stroke-linejoin="round"/>
<path d="M2.73075 11.9638C1.66922 11.5257 1 10.9145 1 10.2342V3.31592" stroke="#6D00F3" stroke-width="2" stroke-linecap="round" stroke-linejoin="round"/>
<path d="M2.73075 8.50497C1.66922 8.06681 1 7.45569 1 6.77539" stroke="#6D00F3" stroke-width="2" stroke-linecap="round" stroke-linejoin="round"/>
</svg>
