<svg width="15" height="17" viewBox="0 0 15 17" fill="none" xmlns="http://www.w3.org/2000/svg">
<path d="M13.6925 11.9615C13.6925 12.2676 13.5709 12.561 13.3545 12.7774C13.1381 12.9938 12.8446 13.1154 12.5386 13.1154H5.03861C4.73259 13.1154 4.43911 12.9938 4.22272 12.7774C4.00633 12.561 3.88477 12.2676 3.88477 11.9615V2.15385C3.88477 1.84783 4.00633 1.55434 4.22272 1.33795C4.43911 1.12157 4.73259 1 5.03861 1H10.2309L13.6925 4.46154V11.9615Z" stroke="#6D00F3" stroke-width="2" stroke-linecap="round" stroke-linejoin="round"/>
<path d="M10.2308 16.0004H2.15385C1.84783 16.0004 1.55434 15.8788 1.33795 15.6624C1.12157 15.446 1 15.1525 1 14.8465V4.46191" stroke="#6D00F3" stroke-width="2" stroke-linecap="round" stroke-linejoin="round"/>
</svg>
