<svg width="15" height="15" viewBox="0 0 15 15" fill="none" xmlns="http://www.w3.org/2000/svg">
<path d="M0 7.5C0 3.35786 3.35786 0 7.5 0C11.6421 0 15 3.35786 15 7.5C15 11.6421 11.6421 15 7.5 15C3.35786 15 0 11.6421 0 7.5Z" fill="#E9E9E9"/>
<g clip-path="url(#clip0_376_585)">
<path d="M7.15685 2L7.08789 2.22782V8.83856L7.15685 8.90547L10.3138 7.09161L7.15685 2Z" fill="#343434"/>
<path d="M7.15696 2L4 7.09161L7.15696 8.90549V5.69683V2Z" fill="#8C8C8C"/>
<path d="M7.15702 9.48629L7.11816 9.53233V11.8872L7.15702 11.9975L10.3159 7.67334L7.15702 9.48629Z" fill="#3C3C3B"/>
<path d="M7.15696 11.9976V9.48629L4 7.67334L7.15696 11.9976Z" fill="#8C8C8C"/>
<path d="M7.15723 8.90539L10.3141 7.09155L7.15723 5.69678V8.90539Z" fill="#141414"/>
<path d="M4 7.09155L7.15691 8.90541V5.69678L4 7.09155Z" fill="#393939"/>
</g>
<defs>
<clipPath id="clip0_376_585">
<rect width="6.31579" height="10" fill="white" transform="translate(4 2)"/>
</clipPath>
</defs>
</svg>
