<svg width="11" height="11" viewBox="0 0 11 11" fill="none" xmlns="http://www.w3.org/2000/svg">
<path d="M5.14453 5.50684H9.99069" stroke="white" stroke-linecap="round" stroke-linejoin="round"/>
<path d="M8.60742 4.12207L9.99204 5.50669L8.60742 6.8913" stroke="white" stroke-linecap="round" stroke-linejoin="round"/>
<path d="M8.74526 8.61539C8.1236 9.26336 7.32229 9.71052 6.44442 9.89936C5.56654 10.0882 4.65225 10.0101 3.81913 9.67508C2.98601 9.34005 2.27217 8.76344 1.76943 8.01941C1.26669 7.27538 0.998047 6.39796 0.998047 5.5C0.998047 4.60205 1.26669 3.72462 1.76943 2.98059C2.27217 2.23656 2.98601 1.65995 3.81913 1.32493C4.65225 0.989908 5.56654 0.911796 6.44442 1.10064C7.32229 1.28948 8.1236 1.73665 8.74526 2.38462" stroke="white" stroke-linecap="round" stroke-linejoin="round"/>
</svg>
