<svg width="15" height="15" viewBox="0 0 15 15" fill="none" xmlns="http://www.w3.org/2000/svg">
<path d="M0 7.5C0 3.35786 3.35786 0 7.5 0C11.6421 0 15 3.35786 15 7.5C15 11.6421 11.6421 15 7.5 15C3.35786 15 0 11.6421 0 7.5Z" fill="#C0C0C0"/>
<path d="M7.03116 9.56748C8.44634 9.59419 9.8356 9.62016 11.2508 9.67283C11.1989 9.88279 11.1463 10.066 11.1204 10.25C11.0411 10.5127 10.9626 10.7493 10.9107 11.012C10.884 11.1433 10.8314 11.1692 10.701 11.1692H3.93849C4.17486 10.25 4.41047 9.38423 4.64608 8.46502C4.27932 8.59634 3.96441 8.72765 3.59766 8.88494C3.70288 8.49173 3.80734 8.15046 3.93849 7.78248C3.93849 7.73054 4.01703 7.70384 4.06964 7.70384C4.30601 7.59923 4.56755 7.51985 4.80316 7.4145C4.88169 7.38927 4.96099 7.31063 4.96099 7.23125L6.06051 3.13671C6.08719 2.97943 6.13904 2.92676 6.3228 2.92676H8.70788C8.41966 4.00251 8.15736 5.07974 7.86914 6.20817C8.28851 6.02492 8.68195 5.8669 9.12725 5.70962C9.07464 5.91957 8.9961 6.10282 8.97018 6.28681C8.91756 6.70747 8.68195 6.94339 8.26258 7.04874C8.07959 7.10067 7.89506 7.17931 7.71206 7.2587C7.64706 7.29758 7.59307 7.35165 7.55499 7.41598C7.37123 8.12449 7.18747 8.80704 7.0304 9.51555V9.56822L7.03116 9.56748Z" fill="white"/>
</svg>
