<svg width="17" height="17" viewBox="0 0 17 17" fill="none" xmlns="http://www.w3.org/2000/svg">
<path d="M16.0006 12.5381V14.8458C16.0006 15.1518 15.879 15.4453 15.6626 15.6617C15.4463 15.8781 15.1528 15.9996 14.8468 15.9996H12.5391" stroke="#6D00F3" stroke-width="2" stroke-linecap="round" stroke-linejoin="round"/>
<path d="M12.5391 1H14.8468C15.1528 1 15.4463 1.12157 15.6626 1.33795C15.879 1.55434 16.0006 1.84783 16.0006 2.15385V4.46154" stroke="#6D00F3" stroke-width="2" stroke-linecap="round" stroke-linejoin="round"/>
<path d="M1 4.46154V2.15385C1 1.84783 1.12157 1.55434 1.33795 1.33795C1.55434 1.12157 1.84783 1 2.15385 1H4.46154" stroke="#6D00F3" stroke-width="2" stroke-linecap="round" stroke-linejoin="round"/>
<path d="M4.46154 15.9996H2.15385C1.84783 15.9996 1.55434 15.8781 1.33795 15.6617C1.12157 15.4453 1 15.1518 1 14.8458V12.5381" stroke="#6D00F3" stroke-width="2" stroke-linecap="round" stroke-linejoin="round"/>
<path d="M13.6932 8.49962C13.6932 8.49962 11.3855 11.9612 8.5009 11.9612C5.61629 11.9612 3.30859 8.49962 3.30859 8.49962C3.30859 8.49962 5.61629 5.03809 8.5009 5.03809C11.3855 5.03809 13.6932 8.49962 13.6932 8.49962Z" stroke="#6D00F3" stroke-width="2" stroke-linecap="round" stroke-linejoin="round"/>
<path d="M8.50075 9.0767C8.81938 9.0767 9.07767 8.8184 9.07767 8.49977C9.07767 8.18115 8.81938 7.92285 8.50075 7.92285C8.18213 7.92285 7.92383 8.18115 7.92383 8.49977C7.92383 8.8184 8.18213 9.0767 8.50075 9.0767Z" stroke="#6D00F3" stroke-width="2" stroke-linecap="round" stroke-linejoin="round"/>
</svg>
