<svg width="56" height="56" viewBox="0 0 56 56" fill="none" xmlns="http://www.w3.org/2000/svg">
<path d="M24.1537 12.6152H16.4614C14.3372 12.6152 12.6152 14.3372 12.6152 16.4614V24.1537C12.6152 26.2779 14.3372 27.9998 16.4614 27.9998H24.1537C26.2779 27.9998 27.9998 26.2779 27.9998 24.1537V16.4614C27.9998 14.3372 26.2779 12.6152 24.1537 12.6152Z" stroke="#6D00F3" stroke-width="5" stroke-linecap="round" stroke-linejoin="round"/>
<path d="M12.6154 3H6.84615C5.82609 3 4.84781 3.40522 4.12651 4.12651C3.40522 4.84781 3 5.82609 3 6.84615V12.6154" stroke="#6D00F3" stroke-width="5" stroke-linecap="round" stroke-linejoin="round"/>
<path d="M43.3848 3H49.154C50.1741 3 51.1523 3.40522 51.8736 4.12651C52.5949 4.84781 53.0002 5.82609 53.0002 6.84615V12.6154" stroke="#6D00F3" stroke-width="5" stroke-linecap="round" stroke-linejoin="round"/>
<path d="M12.6154 53.0002H6.84615C5.82609 53.0002 4.84781 52.5949 4.12651 51.8736C3.40522 51.1523 3 50.1741 3 49.154V43.3848" stroke="#6D00F3" stroke-width="5" stroke-linecap="round" stroke-linejoin="round"/>
<path d="M43.3848 53.0002H49.154C50.1741 53.0002 51.1523 52.5949 51.8736 51.8736C52.5949 51.1523 53.0002 50.1741 53.0002 49.154V43.3848" stroke="#6D00F3" stroke-width="5" stroke-linecap="round" stroke-linejoin="round"/>
<path d="M12.6152 37.6152V43.3845H18.3845" stroke="#6D00F3" stroke-width="5" stroke-linecap="round" stroke-linejoin="round"/>
<path d="M27.9997 43.3845V37.6152H22.2305" stroke="#6D00F3" stroke-width="5" stroke-linecap="round" stroke-linejoin="round"/>
<path d="M43.3845 18.3845H37.6152V12.6152" stroke="#6D00F3" stroke-width="5" stroke-linecap="round" stroke-linejoin="round"/>
<path d="M43.3845 31.8464V26.0771H37.6152" stroke="#6D00F3" stroke-width="5" stroke-linecap="round" stroke-linejoin="round"/>
<path d="M37.6152 37.6152V43.3845H43.3845" stroke="#6D00F3" stroke-width="5" stroke-linecap="round" stroke-linejoin="round"/>
</svg>
