<svg width="17" height="17" viewBox="0 0 17 17" fill="none" xmlns="http://www.w3.org/2000/svg">
<path d="M7.3463 3.88477H5.03861C4.40136 3.88477 3.88477 4.40136 3.88477 5.03861V7.3463C3.88477 7.98356 4.40136 8.50015 5.03861 8.50015H7.3463C7.98356 8.50015 8.50015 7.98356 8.50015 7.3463V5.03861C8.50015 4.40136 7.98356 3.88477 7.3463 3.88477Z" stroke="#6D00F3" stroke-width="2" stroke-linecap="round" stroke-linejoin="round"/>
<path d="M3.88462 1H2.15385C1.84783 1 1.55434 1.12157 1.33795 1.33795C1.12157 1.55434 1 1.84783 1 2.15385V3.88462" stroke="#6D00F3" stroke-width="2" stroke-linecap="round" stroke-linejoin="round"/>
<path d="M13.1152 1H14.846C15.152 1 15.4455 1.12157 15.6619 1.33795C15.8783 1.55434 15.9998 1.84783 15.9998 2.15385V3.88462" stroke="#6D00F3" stroke-width="2" stroke-linecap="round" stroke-linejoin="round"/>
<path d="M3.88462 15.9998H2.15385C1.84783 15.9998 1.55434 15.8783 1.33795 15.6619C1.12157 15.4455 1 15.152 1 14.846V13.1152" stroke="#6D00F3" stroke-width="2" stroke-linecap="round" stroke-linejoin="round"/>
<path d="M13.1152 15.9998H14.846C15.152 15.9998 15.4455 15.8783 15.6619 15.6619C15.8783 15.4455 15.9998 15.152 15.9998 14.846V13.1152" stroke="#6D00F3" stroke-width="2" stroke-linecap="round" stroke-linejoin="round"/>
<path d="M3.88477 11.3848V13.1155H5.61553" stroke="#6D00F3" stroke-width="2" stroke-linecap="round" stroke-linejoin="round"/>
<path d="M8.5003 13.1155V11.3848H6.76953" stroke="#6D00F3" stroke-width="2" stroke-linecap="round" stroke-linejoin="round"/>
<path d="M13.1155 5.61553H11.3848V3.88477" stroke="#6D00F3" stroke-width="2" stroke-linecap="round" stroke-linejoin="round"/>
<path d="M13.1155 9.65362V7.92285H11.3848" stroke="#6D00F3" stroke-width="2" stroke-linecap="round" stroke-linejoin="round"/>
<path d="M11.3848 11.3848V13.1155H13.1155" stroke="#6D00F3" stroke-width="2" stroke-linecap="round" stroke-linejoin="round"/>
</svg>
