<svg width="56" height="56" viewBox="0 0 56 56" fill="none" xmlns="http://www.w3.org/2000/svg">
<path d="M29.3859 52.7421C28.4948 53.086 27.5076 53.086 26.6165 52.7421V52.7421C19.6634 50.0727 13.6836 45.3568 9.46703 39.2174C5.25047 33.0779 2.99551 25.8038 3.00002 18.3559V8.31697C2.99791 7.8958 3.13142 7.48513 3.38079 7.14571C3.63016 6.80628 3.98215 6.55614 4.3847 6.43227C19.7965 1.85591 36.2059 1.85591 51.6177 6.43227C52.0202 6.55614 52.3722 6.80628 52.6216 7.14571C52.871 7.48513 53.0045 7.8958 53.0024 8.31697V18.3559C53.0069 25.8038 50.7519 33.0779 46.5353 39.2174C42.3188 45.3568 36.339 50.0727 29.3859 52.7421V52.7421Z" stroke="#0ABAB5" stroke-width="5" stroke-linecap="round" stroke-linejoin="round"/>
</svg>
