<svg width="29" height="29" viewBox="0 0 29 29" fill="none" xmlns="http://www.w3.org/2000/svg">
<path d="M25.0769 2H3.92308C2.86099 2 2 2.86099 2 3.92308V15.4615C2 16.5236 2.86099 17.3846 3.92308 17.3846H25.0769C26.139 17.3846 27 16.5236 27 15.4615V3.92308C27 2.86099 26.139 2 25.0769 2Z" stroke="#6D00F3" stroke-width="3" stroke-linecap="round" stroke-linejoin="round"/>
<path d="M14.4998 12.5768C16.093 12.5768 17.3845 11.2854 17.3845 9.69223C17.3845 8.0991 16.093 6.80762 14.4998 6.80762C12.9067 6.80762 11.6152 8.0991 11.6152 9.69223C11.6152 11.2854 12.9067 12.5768 14.4998 12.5768Z" stroke="#6D00F3" stroke-width="3" stroke-linecap="round" stroke-linejoin="round"/>
<path d="M3.92383 22.1924H25.0777" stroke="#6D00F3" stroke-width="3" stroke-linecap="round" stroke-linejoin="round"/>
<path d="M5.8457 27H23.1534" stroke="#6D00F3" stroke-width="3" stroke-linecap="round" stroke-linejoin="round"/>
</svg>
