<svg width="18" height="17" viewBox="0 0 18 17" fill="none" xmlns="http://www.w3.org/2000/svg">
<path d="M14.2709 9.07623V6.76825C14.2709 6.46219 14.1493 6.16867 13.9329 5.95225C13.7165 5.73584 13.423 5.61426 13.1169 5.61426H2.15399C1.84793 5.61426 1.55441 5.73584 1.338 5.95225C1.12158 6.16867 1 6.46219 1 6.76825V14.8462C1 15.1522 1.12158 15.4458 1.338 15.6622C1.55441 15.8786 1.84793 16.0002 2.15399 16.0002H13.1169C13.423 16.0002 13.7165 15.8786 13.9329 15.6622C14.1493 15.4458 14.2709 15.1522 14.2709 14.8462V11.9612" stroke="white" stroke-width="2" stroke-linecap="round" stroke-linejoin="round"/>
<path d="M4.85352 2.7291L11.3966 1.02119C11.4702 1.00047 11.5471 0.994871 11.6229 1.00472C11.6986 1.01456 11.7716 1.03966 11.8374 1.07848C11.9032 1.11731 11.9604 1.16906 12.0056 1.23061C12.0509 1.29217 12.0832 1.36225 12.1006 1.43663L12.4237 2.7291" stroke="white" stroke-width="2" stroke-linecap="round" stroke-linejoin="round"/>
<path d="M15.4249 9.07617H12.5399C12.2212 9.07617 11.9629 9.3345 11.9629 9.65317V11.3842C11.9629 11.7028 12.2212 11.9612 12.5399 11.9612H15.4249C15.7435 11.9612 16.0019 11.7028 16.0019 11.3842V9.65317C16.0019 9.3345 15.7435 9.07617 15.4249 9.07617Z" stroke="white" stroke-width="2" stroke-linecap="round" stroke-linejoin="round"/>
</svg>
